<?xml version="1.0" encoding="UTF-8"?><svg id="Layer_1" xmlns="http://www.w3.org/2000/svg" viewBox="0 0 1308.65 1124.46"><path d="m739.41,243.96c-2.83,5.93-3.24,12.03-4.22,18-2.32,14.2-4.29,28.46-6.44,42.69-1.72,11.38-3.49,22.76-5.25,34.13-3.03,19.59-6.08,39.19-9.09,58.78-2.09,13.59-4.13,27.19-6.2,40.79-2.36,15.49-4.7,30.98-7.1,46.47-.49,3.19-.64,6.3-.11,9.53.57,3.45.78,6.98.93,10.48.19,4.47.09,8.96.25,13.44.37,10.75,3.01,20.85,8.78,30.03.85,1.35,1.69,2.74,2.24,4.23,1.09,2.95.53,5.68-1.66,7.98-1.67,1.76-3.82,2.53-6.12,1.87-2.12-.61-4.15-1.64-6.12-2.67-1.11-.59-2.09-1.49-3-2.38-4.3-4.2-9.59-6.3-15.4-7.17-2.19-.33-4.48-.6-6.65-.3-3.87.54-7.61.17-11.44-.33-4.43-.59-8.93-.6-13.39-.86-8.3-.49-15.78,2.01-22.79,6.21-1.65.98-3.17,2.19-4.88,3.04-1.41.71-2.98,1.13-4.52,1.52-1.87.48-3.99-.99-4.39-2.8-.8-3.6-.5-7.02,1.68-10.09,1.66-2.35,3.38-4.66,5.2-6.89,1.89-2.32,2.97-4.9,3.06-7.89.35-11.84.47-23.68-.88-35.47-.44-3.84-.84-7.58.05-11.42.42-1.81.27-3.82,0-5.7-1.11-7.92-2.34-15.82-3.56-23.72-3.01-19.6-6.02-39.2-9.04-58.79-2.2-14.22-4.44-28.44-6.63-42.66-1.75-11.38-3.43-22.77-5.18-34.14-1.31-8.53-2.71-17.06-4.03-25.59-1.86-12.01-3.63-24.03-5.53-36.03-.6-3.77-1.48-7.5-2.25-11.25-.13-.64-.52-.67-.88-.05-.63,1.08-1.39,2.12-1.8,3.28-4.36,12.26-13.21,20.14-24.77,25.32-4.08,1.83-8.37,3.2-12.46,5.02-4.38,1.95-8.66,4.12-12.91,6.32-1.73.89-2.99,2.37-3.75,4.22-1.35,3.28-2.15,6.69-2.42,10.22-.08,1,1.34,2.57,2.44,2.53,2.87-.09,5.77,0,8.58-.46,5.49-.89,10.86-.34,16.19.86,8,1.79,12.07,6.34,13.03,14.52.19,1.57.24,3.22-.02,4.77-1.69,10.1.88,19.7,3.31,29.31.39,1.54,1.11,3,1.65,4.5,1.39,3.91,1.32,7.4-5.56,6.18-3.14-.56-6.29-1.06-9.43-1.65-1.04-.2-1.94-2.23-1.49-3.15.14-.29.25-.61.46-.84,3.26-3.62,3.15-7.39.69-11.4-3.18-5.2-5.76-10.7-7.66-16.51-2.16-6.58-6.7-10.72-13.2-12.87-3.04-1-6.1-1.97-9.03-3.23-2.03-.88-3.94-2.1-5.72-3.42-1.6-1.19-2.45-3.06-2.4-5.03.06-2.22.49-4.43.84-6.63.22-1.4-.13-2.52-1.28-3.34-1.04-.74-2.2-1.32-3.18-2.13-2.41-1.99-3.41-5.15-1.94-7.73,2.77-4.85,3.64-10.12,4.67-15.49,2.2-11.43,6.74-21.97,13.34-31.61,6.51-9.5,12.99-19.02,19.32-28.65,2.28-3.46,4.36-7.11,6.02-10.89,1.93-4.4,3.05-9.1,3.2-13.96.14-4.48.17-8.96.35-13.43.21-5.11.64-10.21.79-15.32.2-7.35.33-14.71.28-22.07-.01-2.21-.67-4.41-1.08-6.61-1.34-7.24-2.38-14.48-2.51-21.89-.25-13.62,2.32-26.72,6.46-39.59,1.57-4.9,3.73-9.51,6.54-13.84,7.65-11.82,15.11-23.76,23.37-35.17,1.11-1.54,2.4-2.97,3.71-4.35,1.29-1.36,4.05-.8,4.92.96.71,1.43,1.5,2.85,1.92,4.37,1.29,4.62,2.7,9.23,3.57,13.94,3.21,17.4,8.41,34.15,15.78,50.22,1.87,4.09,3.09,8.35,4.11,12.75,1.86,8.05,1.5,16.02-1.13,23.67-2.47,7.18-3.62,14.2-1.53,21.59,2.53,19.34,5.08,38.68,7.6,58.02,2.56,19.66,5.12,39.32,7.64,58.98,2.23,17.45,4.35,34.9,6.61,52.35,1.52,11.73,3.29,23.43,4.8,35.17,1.63,12.69,3.1,25.39,4.63,38.09.73,6.03,1.25,12.1,2.2,18.1,1.1,6.98,1.24,14.01,1.64,21.03.41,7.01,1.2,14,1.89,21,.07.75.79,1.02,1.46.77.26-.1.58-.32.64-.55.24-.91.51-1.85.54-2.78.1-2.88.17-5.76.14-8.64-.16-15.39,1.42-30.65,3.46-45.88,2.3-17.11,4.3-34.26,6.48-51.39,1.61-12.69,3.34-25.36,4.93-38.05,1.59-12.69,3.04-25.4,4.61-38.09,1.53-12.38,3.14-24.74,4.72-37.11.81-6.34,1.64-12.69,2.47-19.03,1.25-9.51,2.56-19.01,3.75-28.53.83-6.66,1.48-13.35,2.26-20.01.4-3.49.86-6.98,1.35-10.46.94-6.7,1.09-13.37-.43-20.04-.5-2.17-.79-4.41-.98-6.64-.49-5.76-1.5-11.43-3.24-16.93-4.17-13.21-2.62-25.88,3.12-38.26,2.29-4.93,4.58-9.88,6.46-14.97,2.88-7.81,5.15-15.78,5.74-24.19.47-6.77,2-13.3,6.15-18.92.75-1.01,1.59-2.05,2.61-2.75.69-.47,1.82-.58,2.67-.43.89.16,1.79.71,2.51,1.3,1.72,1.42,3.35,2.97,5.01,4.47,5.46,4.92,10.87,9.92,16.41,14.75,10.22,8.92,17.15,19.89,19.89,33.15,1.82,8.76,2.9,17.71,2.21,26.71-1.05,13.76-3.02,27.37-8.26,40.26-3.68,9.05-5.26,18.41-5.17,28.12.12,12.48.3,24.96.3,37.44,0,10.93,3.29,20.73,9.4,29.71,6.29,9.26,12.3,18.72,18.77,27.86,8.91,12.6,13.73,26.65,15.65,41.8.44,3.47.56,7.05.25,10.52-.47,5.28-3.5,8.82-8.64,10.33-1.84.54-3.74.87-5.62,1.24-2.2.43-4.4.83-6.61,1.18-7.55,1.21-11.92,5.65-13.43,13.06-.57,2.82-1.19,5.63-1.72,8.46-.88,4.72-1.64,9.45-2.59,14.16-.24,1.21-.96,2.33-1.52,3.46-.11.23-.57.46-.81.4-.56-.12-1.34-.26-1.57-.65-.63-1.09-1.26-2.28-1.48-3.5-1.81-10.07-3.54-20.16-5.28-30.24-.11-.63-.23-1.26-.27-1.9-.35-6,1.98-10.64,7.29-13.5,4.86-2.62,10.17-3.92,15.67-3.98,5.11-.06,10.22.26,15.34.38.82.02,1.21-.49,1.03-1.3-.06-.29-.3-.65-.55-.76-2.62-1.16-5.22-2.39-7.91-3.37-5.11-1.87-10.32-3.45-15.38-5.43-3.56-1.39-7.07-3.02-10.36-4.96-8.64-5.09-13.14-12.85-13.75-22.83-.25-4.14-.27-8.3-.39-12.46Z"/><path d="m407.02,1046.52c.22-1.64.46-2.29.37-2.88-1.79-11.43-1.63-22.95-1.81-34.46-.14-8.63.15-17.27-.95-25.87-.28-2.21-.19-4.47-.21-6.71-.12-18.87-.25-37.74-.32-56.62-.01-2.87.17-5.75.44-8.61.22-2.25,2.2-4.06,4.55-4.21,3.19-.2,6.38-.29,9.58-.31,2.88-.02,5.76-.02,8.63.2,3.24.24,4.91,1.48,5.5,5.49.19,1.26.26,2.55.29,3.82.05,2.56.04,5.12.04,7.68,0,60.14,0,120.27-.02,180.41,0,3.83-.13,7.67-.43,11.49-.22,2.78-2.25,4.74-5.11,4.79-7.67.12-15.34.11-23.01,0-2.8-.05-4.82-1.65-5.69-4.36-.68-2.13-1.23-4.3-1.71-6.48-4.8-21.86-9.58-43.73-14.37-65.59-2.94-13.43-5.91-26.85-8.84-40.29-1.7-7.81-3.32-15.64-5.02-23.45-.4-1.84-1-3.64-1.74-6.34-1.13,2.95-.64,5.06-.32,7.06,1.05,6.34,1.2,12.73,1.28,19.13.11,8.96.16,17.91.25,26.87.08,7.67-.04,15.35.98,22.99.3,2.21.24,4.47.26,6.71.18,16.95.36,33.9.51,50.86.02,2.56-.03,5.12-.19,7.67-.19,2.94-1.95,4.87-4.74,5.12-2.86.26-5.74.35-8.61.37-2.87.02-5.76-.03-8.62-.24-3.46-.25-5.4-2.12-5.6-5.38-.18-2.87-.21-5.75-.21-8.63-.02-16.63,0-33.27,0-49.9,0-45.1,0-90.2.02-135.31,0-3.51.21-7.02.46-10.53.12-1.75,2.04-3.49,3.89-3.72,1.58-.2,3.18-.39,4.77-.39,5.76-.01,11.51-.04,17.27.12,3.89.11,5.68,1.64,6.82,5.52.72,2.45,1.3,4.95,1.87,7.44,3.46,14.95,6.89,29.91,10.35,44.87,5.69,24.61,11.42,49.21,17.09,73.83.55,2.39,1.17,4.73,2.32,7.85Z"/><path d="m1221.9,1013.41c0-30.07,0-60.14,0-90.2,0-3.2-.01-6.4.18-9.59.28-4.63,2.06-6.39,6.44-6.65,1.6-.09,3.2-.12,4.79-.12,14.07,0,28.15,0,42.22.02,2.24,0,4.49-.01,6.71.26,2.53.31,5.06.76,7.51,1.45,9.13,2.57,14.84,8.58,16.96,17.77.93,4.03,1.34,8.19,1.79,12.32.24,2.21.09,4.47.09,6.71,0,45.1-.03,90.2.03,135.31,0,6.43-.4,12.78-1.67,19.07-.38,1.87-.86,3.75-1.52,5.54-2.76,7.41-7.9,12.33-15.64,14.19-3.09.74-6.29,1.35-9.45,1.38-16.63.14-33.26.08-49.89.08-.64,0-1.28-.05-1.92-.1-4.39-.32-6.22-2.13-6.46-6.68-.17-3.19-.16-6.39-.16-9.59-.01-30.39,0-60.78,0-91.16Zm30.96-.94c0,19.18,0,38.36,0,57.55,0,4.48-.03,8.95.07,13.43.03,1.58.26,3.19.64,4.72.41,1.66,1.66,2.83,3.3,3.13,5.07.92,10.18.92,15.24-.04,2.39-.46,3.91-2.12,4.59-4.42.36-1.21.54-2.5.61-3.77.13-2.23.16-4.47.16-6.71,0-41.24,0-82.48,0-123.73,0-2.56-.04-5.12-.17-7.67-.06-1.27-.2-2.58-.59-3.78-.94-2.93-2.89-5.09-5.92-5.72-4.72-.98-9.52-.92-14.28-.13-1.28.21-3.02,1.96-3.12,3.32-.24,3.18-.49,6.37-.5,9.56-.04,21.42-.02,42.84-.02,64.26Z"/><path d="m1047.11,1013.87c0-30.38,0-60.76,0-91.15,0-3.2,0-6.4.2-9.59.25-4.04,2.08-5.86,5.91-6.13,1.59-.11,3.19-.16,4.79-.16,13.75,0,27.5,0,41.25.04,2.56,0,5.11.17,7.67.27,3.23.13,6.32.93,9.33,2.05,6.7,2.49,11.38,7.06,13.64,13.85,1,3.02,1.71,6.16,2.23,9.31.62,3.78,1.13,7.61,1.29,11.43.53,12.78.96,25.56-.4,38.32-.24,2.23-.43,4.46-.69,6.68-.18,1.59-.34,3.18-.66,4.75-1.6,7.88-4.85,14.56-12.92,17.77-1.07.43-1.17,1.6-.35,2.2.26.19.49.42.77.57,7.17,3.71,10.38,9.98,11.85,17.6.92,4.75,1.28,9.5,1.3,14.3.04,12.79.14,25.59.05,38.38-.07,10.29.75,20.44,3.71,30.34.27.9.22,1.89.28,2.85.07.96-1.24,2.67-2.23,2.81-7.95,1.11-15.92.87-23.88.08-2.06-.2-3.39-1.68-4.11-3.6-.44-1.2-.95-2.41-1.12-3.66-.94-6.64-2.03-13.24-2.6-19.96-1.18-14.05-1.08-28.11-1.27-42.17-.05-3.84-.3-7.67-.47-11.5-.14-3.23-.93-6.32-2.19-9.29-1.35-3.15-3.74-5.16-6.97-6.11-1.52-.45-3.12-.67-4.71-.78-6.81-.45-8.5,1.11-8.72,8.04-.08,2.56-.05,5.12-.05,7.67,0,22.39,0,44.77-.01,67.16,0,3.51.27,7.05-.78,10.48-.6,1.97-1.92,3.27-3.97,3.73-.62.14-1.26.31-1.89.32-6.07.03-12.15.14-18.21-.03-3.77-.1-5.68-2.2-5.9-6.15-.18-3.19-.19-6.39-.19-9.59-.01-30.38,0-60.76,0-91.15Zm56-50.25c-.07,0-.14,0-.22,0,0-5.43.06-10.86-.03-16.29-.04-2.22-.29-4.47-.69-6.66-.5-2.8-3.08-5.27-5.92-5.52-3.49-.31-7.01-.46-10.51-.4-5.75.1-7.39,1.65-7.43,7.51-.1,15.97-.05,31.95,0,47.92,0,1.26.31,2.52.55,3.77.26,1.34,1.96,2.84,3.37,3.05,3.82.57,7.65.59,11.45-.08,3.36-.6,5.75-2.57,7.13-5.75,1.17-2.68,1.73-5.48,1.81-8.38.19-6.39.33-12.77.49-19.16Z"/><path d="m732.45,998.74c0,23.03,0,46.06,0,69.09,0,3.84.01,7.68.11,11.51.06,2.23.22,4.47.48,6.7,1.17,10.19,9.91,13.49,17.25,12.46,5.1-.72,8.84-3.39,10.81-8.36,1.08-2.72,1.7-5.49,1.76-8.4.1-5.12.23-10.23.23-15.35.02-47.34.01-94.68.02-142.01,0-3.2-.04-6.4.11-9.59.08-1.57.45-3.15.89-4.67.37-1.27,1.35-2.14,2.6-2.61.59-.22,1.23-.43,1.85-.44,6.71-.02,13.42-.06,20.13.05,2.42.04,4.19,1.79,4.6,4.15.27,1.57.49,3.16.54,4.75.1,2.88.07,5.76.07,8.63,0,45.74-.05,91.48.05,137.22.02,8.03-.66,15.97-1.6,23.9-.64,5.44-2.4,10.57-4.64,15.56-4.92,10.99-13.47,17.68-24.84,20.88-11.37,3.2-22.72,2.98-33.99-.85-9.24-3.14-16.13-8.91-20.58-17.6-2.36-4.59-3.98-9.42-4.88-14.49-1.12-6.31-1.67-12.65-1.66-19.08.07-47.66.04-95.32.04-142.97,0-3.84-.02-7.68.08-11.51.04-1.58.31-3.17.61-4.74.36-1.91,2.05-3.57,3.87-3.75,7.02-.71,14.04-.55,21.06-.1,2.31.15,4.08,1.93,4.47,4.31.25,1.57.44,3.17.5,4.76.09,2.56.06,5.12.06,7.68,0,24.95,0,49.9,0,74.84Z"/><path d="m553.95,1014.98c0,19.5-.01,39,.01,58.5,0,3.83.08,7.67.28,11.5.1,1.9.39,3.83.88,5.67,1.05,3.98,4.12,6.45,8.29,6.83,1.27.12,2.56.15,3.83.09,5.75-.28,9.54-3.46,10.77-9.1.34-1.55.54-3.16.55-4.75.05-14.07.06-28.13.05-42.2,0-.95-.16-1.91-.28-2.86-.25-1.88-1.83-3.62-3.7-3.9-2.84-.43-5.71-.65-8.53-1.17-2.01-.37-3.59-1.64-3.93-3.72-1.09-6.66-.92-13.36-.16-20.05.2-1.8,2.03-3.65,3.76-3.92,1.57-.25,3.17-.5,4.75-.5,9.59-.04,19.18-.02,28.77-.01.96,0,1.92.07,2.87.16,4.36.41,6.04,2.22,6.26,6.84.1,2.23.1,4.47.1,6.71,0,29.41.02,58.82-.02,88.23,0,3.19-.16,6.39-.5,9.56-.18,1.66-1.41,2.88-3.07,3.34-4.08,1.12-8.22,1.05-12.31.1-.86-.2-1.7-.86-2.36-1.51-.91-.88-1.56-2.03-2.47-2.9-.37-.35-1.3-.56-1.71-.34-1.4.75-2.68,1.7-4,2.59-12.77,8.61-25.93,7.67-39.13,1.31-4.98-2.4-8.69-6.45-11.61-11.17-3.07-4.96-5.07-10.35-6.17-16.03-1.21-6.27-2.09-12.59-2.04-19.03.11-13.75.03-27.49.03-41.24,0-24.3.05-48.59-.02-72.89-.02-6.74.51-13.41,1.74-20.03,1.87-10.05,6.18-18.8,14.02-25.55,2.16-1.86,4.53-3.64,7.09-4.83,13.13-6.1,26.55-6.58,40.01-1.17,8.15,3.27,13.61,9.34,16.63,17.57,1.99,5.43,3.34,11.06,3.48,16.84.21,8.63.11,17.26.08,25.89,0,1.25-.29,2.53-.62,3.76-.45,1.67-1.69,2.96-3.31,3.09-4.45.35-8.92.47-13.39.51-2.22.02-4.46-.21-6.65-.58-1.67-.28-2.9-1.48-3.23-3.15-.38-1.86-.56-3.79-.59-5.69-.09-5.11-.08-10.23-.08-15.34,0-4.51-.71-8.92-1.89-13.25-1-3.67-3.74-5.95-7.57-6.32-1.58-.15-3.2-.18-4.77-.02-4.66.47-8.44,3.78-9.24,8.42-.54,3.13-.73,6.35-.78,9.54-.12,7.35-.07,14.7-.08,22.06,0,14.71,0,29.41,0,44.12h0Z"/><path d="m919.47,907c4.16,0,8.32-.13,12.47.04,3.26.14,5.07,1.32,5.86,5.23.94,4.7,1.61,9.46,2.35,14.2,3.1,19.91,6.21,39.81,9.26,59.73,3.53,23.08,6.97,46.17,10.51,69.24,2.77,18.02,5.64,36.02,8.44,54.03.29,1.89.51,3.81.54,5.72.04,3.07-1.21,4.81-4.29,5.41-.31.06-.63.15-.95.15-6.07.02-12.15.05-18.22.04-.62,0-1.26-.2-1.87-.38-1.63-.49-3.02-1.52-3.38-3.11-.97-4.36-1.76-8.77-2.45-13.19-.89-5.69-1.57-11.4-2.41-17.1-.36-2.44-2.08-4.16-4.43-4.35-7.02-.58-14.06-.62-21.07.03-2.48.23-4.01,1.93-4.77,4.18-.5,1.5-.82,3.09-1.01,4.67-.82,6.67-1.55,13.34-2.33,20.01-.93,7.93-2.32,9.3-10.26,9.4-5.43.07-10.87-.14-16.29-.35-1.9-.07-3.47-2.07-3.35-4.03.2-3.19.36-6.39.81-9.55,2.2-15.51,4.53-31.01,6.71-46.53,1.65-11.72,3.12-23.46,4.73-35.18,1.44-10.45,2.96-20.9,4.45-31.35,1.62-11.4,3.27-22.79,4.86-34.19,2.07-14.89,4.09-29.78,6.14-44.67.13-.95.36-1.88.59-2.81.84-3.43,2.55-4.97,5.93-5.23,1.59-.12,3.19-.17,4.79-.19,2.88-.03,5.76,0,8.64,0,0,.05,0,.11,0,.16Zm.34,146.31v-.09c1.28,0,2.56.06,3.83-.01,4.65-.25,6.37-2.14,6.09-6.63-.04-.64-.07-1.28-.16-1.91-.76-5.38-1.53-10.76-2.3-16.13-1.72-12.02-3.43-24.04-5.18-36.05-.78-5.36-1.66-10.7-2.53-16.05-.03-.17-.46-.37-.71-.37-.25,0-.72.18-.74.34-.86,6.31-1.7,12.63-2.49,18.95-1.87,14.9-3.72,29.8-5.56,44.7-.16,1.27-.27,2.54-.36,3.82-.53,7.97.81,9.35,9.15,9.43.32,0,.64,0,.96,0Z"/><path d="m249.35,1121.16c-3.5-.21-7.02-.31-10.51-.67-2.03-.21-3.55-1.48-4.18-3.47-.57-1.82-1.11-3.68-1.38-5.56-.87-6.01-1.56-12.04-2.42-18.05-.32-2.21-.82-4.4-1.4-6.55-.75-2.73-2.61-4.3-5.6-4.36-6.39-.12-12.78-.12-19.17.01-3.02.06-4.82,1.73-5.26,4.59-.78,5.05-1.4,10.13-2.14,15.19-.69,4.74-1.39,9.48-2.22,14.2-.4,2.26-2.34,3.94-4.69,4.14-6.7.56-13.4.64-20.1-.08-2.26-.25-4.02-2.37-4.02-4.66,0-.96-.03-1.93.1-2.87,1.31-9.5,2.66-18.99,3.99-28.48,1.69-12.03,3.36-24.05,5.05-36.08,1.6-11.39,3.23-22.78,4.81-34.18,1.67-12.03,3.3-24.06,4.97-36.09,1.45-10.45,2.91-20.89,4.38-31.34,1.11-7.91,2.17-15.83,3.37-23.73.62-4.1,1.37-8.2,2.28-12.25.45-1.98,1.93-3.29,4.01-3.66,1.25-.22,2.54-.34,3.81-.35,7.03-.03,14.07-.03,21.1,0,1.27,0,2.55.17,3.8.43,1.66.34,3.05,1.35,3.51,2.93.89,3.06,1.66,6.17,2.16,9.32,2.46,15.47,4.82,30.95,7.19,46.42,2.18,14.22,4.31,28.44,6.5,42.65,2.92,18.95,5.89,37.89,8.82,56.84,2.19,14.21,4.35,28.43,6.51,42.65.29,1.9.55,3.8.78,5.7.61,5.12-.91,6.84-6.36,7.06-2.55.1-5.11.02-7.67.02,0,.08,0,.16,0,.24Zm-36.51-163.55c0,2.34-.03,3.47,0,4.61.34,11.21-1.21,22.28-2.55,33.36-1.53,12.66-3.32,25.29-4.91,37.94-.64,5.06-1.13,10.14-1.56,15.22-.2,2.38,1.11,3.8,3.12,4.15,1.87.32,3.8.42,5.71.41,2.87,0,5.73-.14,8.59-.32,1.51-.09,3.07-1.82,3.01-3.2-.06-1.27-.12-2.55-.29-3.8-2.3-16.74-4.51-33.5-6.99-50.22-1.73-11.68-3.56-23.33-3.36-35.19,0-.58-.29-1.17-.77-2.95Z"/><path d="m50.01,1071.64c.24-2.65.36-3.28.35-3.92-.24-12.53,1.46-24.88,3.35-37.21.87-5.69,1.55-11.4,2.24-17.11,1.54-12.69,2.96-25.4,4.55-38.09,1.58-12.69,3.33-25.36,4.95-38.04.89-6.98,1.65-13.97,2.53-20.95.24-1.89.56-3.8,1.1-5.62.58-1.98,2-3.44,4.12-3.48,7.02-.14,14.05-.17,21.08-.08,2.55.03,4.19,1.97,3.97,4.44-.37,4.14-.77,8.28-1.38,12.39-2.27,15.18-4.63,30.34-6.98,45.51-2.98,19.27-6.01,38.54-8.97,57.81-2.14,13.9-4.21,27.82-6.31,41.73-2.04,13.59-4.05,27.19-6.13,40.78-.34,2.21-.88,4.39-1.47,6.55-.75,2.73-2.57,4.32-5.6,4.37-7.99.15-15.98.18-23.97.07-3.51-.05-5.38-1.7-6.21-4.91-.56-2.16-1.04-4.36-1.39-6.56-2.52-16.11-4.99-32.23-7.48-48.34-3.85-24.96-7.72-49.92-11.53-74.89-3.57-23.39-7.1-46.78-10.59-70.18-.28-1.87-.23-3.79-.22-5.69,0-1.05,1.41-2.46,2.43-2.71.31-.07.6-.27.91-.3,7.34-.58,14.69-.64,22.02.03,2.12.19,3.38,1.71,4.05,3.61.42,1.2.66,2.47.83,3.73,2.03,15.53,4.01,31.07,6.05,46.6,1.54,11.73,3.17,23.44,4.75,35.16.85,6.34,1.66,12.68,2.49,19.02,1.16,8.88,2.43,17.74,3.45,26.63,1.06,9.2,1.89,18.42,3.02,29.63Z"/><path d="m604.32,549.8c-.79,20.16-6.76,39.09-18.54,56.1-.7,1.01-1.79,1.77-2.76,2.58-.81.67-2.93.07-3.33-.91-.36-.87-.85-1.75-.97-2.66-.78-6.02-1.47-12.04-2.18-18.07-1.06-8.88-2.23-17.74-3.15-26.63-1.52-14.63-4.1-29.09-6.43-43.6-1.37-8.51-3.05-16.98-4.47-25.48-1.07-6.42-3.56-12.25-7.03-17.69-3.62-5.67-6.71-11.6-9.33-17.81-5.65-13.39-8.39-27.43-9.83-41.81-.7-6.99-1.6-13.96-2.61-20.91-1.37-9.48-2.95-18.93-4.39-28.41-.19-1.24-.1-2.54-.1-3.81,0-1.25,1.72-2.37,2.72-1.77,1.36.82,2.69,1.68,4.01,2.56,3.79,2.51,7.83,4.26,12.44,4.61,1.9.15,3.79.54,5.66.94,1.88.4,3.52,2.14,3.58,4.03.1,3.5.33,7.05-.11,10.5-1.63,12.74-1.42,25.53-.85,38.29.37,8.28,1.6,16.52,2.65,24.76.77,6.01,1.77,12.01,2.88,17.97,1.27,6.79,5.92,10.29,12.29,11.91,1.34.34,3.46-.94,3.71-2.34,1.11-6.29,2.18-12.59,2.36-18.99.17-6.08.93-12.1,2.36-18.01.11-.44.88-.98,1.35-.99.52-.01,1.31.4,1.53.86.55,1.13.97,2.36,1.21,3.59,1.83,9.73,3.66,19.46,5.39,29.21,1.62,9.12,3.07,18.27,4.67,27.39,2.65,15.1,4.8,30.28,6.72,45.49.36,2.84.36,5.74.55,9.09Z"/><path d="m794.07,355.91c-.51,2.93-1.01,6.08-1.6,9.22-2.24,11.94-4.18,23.94-7.35,35.69-1.91,7.1-3.86,14.19-6.16,21.17-6.63,20.06-12.29,40.37-16.07,61.18-2.69,14.79-4.88,29.64-5.22,44.72-.22,9.95-1.74,19.77-4.57,29.3-2.84,9.56-4.94,19.18-4.94,29.2,0,1.58-.26,3.21-.75,4.7-.24.73-1.23,1.35-2.03,1.69-.36.16-1.26-.35-1.58-.79-.94-1.28-1.82-2.62-2.52-4.04-4.53-9.18-9-18.38-13.49-27.58-.42-.86-.8-1.74-1.23-2.6-1.93-3.88-2.2-7.92-1.41-12.15,1.3-6.91,2.42-13.86,3.69-20.77,3.66-19.8,7.33-39.61,11.05-59.4,1.72-9.13,3.9-18.18,7.85-26.62,7.13-15.26,10.35-31.53,13.06-47.96.89-5.36,1.57-10.75,2.42-16.12.3-1.89.81-3.75,1.22-5.62.6-2.71,2.2-4.57,4.79-5.54,6.35-2.36,12.15-5.66,17.51-9.81,1.21-.94,2.84-1.35,4.32-1.91,1.02-.38,2.71.85,2.8,1.92.05.63.12,1.27.21,2.13Z"/><path d="m666.31,723.87c-7.99,0-15.97.04-23.96,0-10.52-.06-18.23-5.08-23.73-13.78-1.53-2.42-2.88-4.98-4.07-7.59-6.23-13.67-12.4-27.36-18.54-41.06-4.06-9.06-7.29-18.42-9.47-28.11-.48-2.16-.65-4.38-.91-6.58-.03-.22.33-.58.59-.71.26-.12.78-.17.92-.01.83.92,1.82,1.81,2.33,2.9,2.39,5.23,4.81,10.45,6.91,15.8,5.55,14.14,14.03,26.5,23.1,38.51,2.12,2.8,4.42,5.46,6.58,8.24,2.94,3.79,6.88,5.75,11.56,5.9,5.42.18,10.89.39,16.28-.12,7.02-.65,14.03-.79,21.06-.89,7.03-.1,14.06-.21,21.09-.34,1.92-.03,3.83-.12,5.75-.21,4.06-.19,7.34-2.02,10.05-4.93.87-.93,1.67-1.94,2.42-2.97,10.18-14,19.26-28.64,25.55-44.85,2.08-5.35,3.75-10.87,5.59-16.31.51-1.51.91-3.06,1.43-4.57.69-1.99,2.39-3.21,3.4-2.5,1.21.85,1.34,2.14,1.07,3.4-2.66,12.51-5.45,24.98-10.21,36.9-2.37,5.94-4.71,11.88-7,17.85-2.98,7.75-5.92,15.52-8.83,23.3-1.46,3.91-3.1,7.71-5.66,11.05-4.07,5.31-9.31,8.55-16,9.58-9.83,1.51-19.71,1.91-29.62,1.85-2.55-.02-5.11,0-7.66,0,0,.09,0,.17,0,.26Z"/><path d="m697.57,635.27c-.14-5.26,1.66-10.39,3.94-15.35,1.19-2.61,2.74-5.05,4.14-7.56,1.25-2.23,2.56-4.43,3.76-6.68,1.62-3.05,1.65-6.11-.18-9.12-.83-1.36-1.63-2.75-2.4-4.15-1.79-3.28-1.97-6.69-.75-10.19,1.06-3.04,2.4-5.94,4.65-8.31,2.16-2.28,4.8-3.05,7.86-2.31,2.52.61,4.81,1.71,6.82,3.36,9.88,8.12,15.38,18.63,16.74,31.28.27,2.5,0,5.12-.39,7.63-1,6.31-2.14,12.61-3.38,18.88-.62,3.13-1.51,6.21-2.42,9.27-1.01,3.39-2.58,6.54-4.66,9.41-4.04,5.59-9.52,8.69-16.4,8.07-7.31-.66-12.29-4.92-15.07-11.71-1.55-3.8-2.28-7.7-2.24-12.5Z"/><path d="m592,620.68c.1-1.04.07-2.99.48-4.84,1.31-5.93,2.77-11.83,4.21-17.73.23-.93.62-1.82.94-2.72,2.61-7.41,8.03-11.31,15.63-12.4,1.25-.18,2.56-.15,3.82-.03,5.2.51,8.74,4.89,8.03,10-.26,1.89-.92,3.73-1.18,5.63-.34,2.53-.63,5.08-.65,7.62-.02,2.65,1.05,5.01,2.97,6.86,1.61,1.55,3.38,2.94,5.03,4.45,4.38,4.01,7.14,8.96,8.53,14.71,1.85,7.64.07,14.58-4.05,21.04-1.58,2.47-3.84,4.25-6.52,5.49-3.04,1.42-6.17,1.75-9.32.55-17.17-6.55-27.58-21.36-27.93-38.64Z"/><path d="m651.24,845.86c0-7.97-.02-15.95.01-23.92.01-2.55.08-5.1.29-7.64.26-3.21,2.59-4.88,6.04-4.52,2.09.21,3.9,1.6,4.14,3.36.26,1.89.47,3.79.51,5.7.09,4.46.01,8.93.14,13.39.04,1.22.44,2.49.94,3.63.38.87,1.33,1.53,2.33,1.23.84-.24,1.76-.76,2.25-1.45.51-.72.72-1.77.76-2.69.13-3.19.12-6.38.19-9.56.06-2.87.04-5.74.26-8.6.3-3.96,3.25-5.87,7.52-5.02,1.68.34,2.86,1.34,3.43,2.96.31.89.59,1.84.65,2.77.14,2.23.19,4.46.2,6.69.01,15.63.03,31.26-.01,46.89,0,2.86-.18,5.73-.49,8.58-.29,2.66-2.41,4.35-5.33,4.51-.63.03-1.27-.02-1.9-.12-2.02-.31-3.77-1.84-3.95-3.61-.23-2.22-.38-4.45-.41-6.67-.08-5.1-.02-10.21-.12-15.31-.02-1.25-.22-2.58-.74-3.69-.34-.73-1.32-1.29-2.14-1.62-.92-.38-2.77.9-2.94,1.89-.22,1.25-.5,2.51-.52,3.77-.08,4.46-.03,8.93-.09,13.4-.03,2.55-.13,5.1-.32,7.64-.13,1.69-.99,3.01-2.6,3.68-2.21.93-4.39.86-6.26-.75-.67-.58-1.28-1.54-1.38-2.39-.3-2.52-.42-5.08-.44-7.62-.05-8.29-.02-16.59-.02-24.88Z"/><path d="m710.88,845.24c0-7.98-.03-15.97.02-23.95.02-2.55.2-5.1.43-7.64.17-1.8,1.98-3.66,3.73-3.9,5.72-.79,11.46-.72,17.19-.09,2.16.23,3.81,2.31,3.97,4.74.2,2.95-1.2,5.3-3.68,5.99-2.14.6-4.35.98-6.48,1.63-1.29.39-2.22,1.49-2.39,2.77-.32,2.51-.55,5.07-.46,7.6.1,2.85.88,5.09,5.05,5.92.94.19,1.88.38,2.79.68,3.36,1.13,4.84,5.74,2.72,8.65-.53.73-1.38,1.37-2.22,1.69-1.48.56-3.07.81-4.61,1.24-2.06.57-3.26,2-3.55,4.05-.58,4.13-.68,8.28.14,12.39.33,1.66,1.52,2.86,3.17,3.26,2.16.53,4.41.7,6.55,1.28,1.65.44,2.59,1.82,2.9,3.48.17.92.2,1.91.11,2.85-.18,1.96-1.69,3.88-3.49,4.07-3.48.36-6.98.64-10.47.67-11.07.11-11.45-1.7-11.44-11.5,0-8.62,0-17.25,0-25.87Z"/><path d="m790.05,319.77c2.53.54,3.95,1.9,4.42,4.21,1.5,7.28-.53,13.41-6.3,18.06-2.07,1.67-4.51,3.04-6.98,4.02-5.05,2-9.91,4.27-14.39,7.35-.42.29-1.01.34-1.52.51-.53.17-1.74-.76-1.75-1.36,0-.81-.15-1.64.02-2.41,1.54-6.85,3.12-13.68,4.7-20.52.57-2.44,1.75-4.44,3.8-6.02,1.69-1.31,3.12-2.95,4.72-4.4,3.54-3.22,7.74-4.91,12.49-5.04,1.31-.04,2.64.44,3.95.73.79.18,1.63,1.17,1.42,1.68-.19.47-.45,1.02-.85,1.26-1.11.68-2.31,1.22-3.72,1.93Z"/><path d="m611.72,809.09c4.13.16,8.28.19,12.4.52,3.68.3,5.47,4.84,3.24,8.06-.5.73-1.37,1.35-2.21,1.65-1.48.53-3.1.7-4.6,1.17-1.3.41-2.2,1.47-2.37,2.76-.32,2.51-.53,5.06-.54,7.6-.05,12.74,0,25.49-.05,38.23-.01,2.86-.17,5.73-.48,8.57-.22,2.04-1.45,3.53-3.46,4.14-2.22.68-4.45.69-6.29-.96-.67-.6-1.32-1.53-1.42-2.38-.31-2.52-.46-5.07-.47-7.61-.04-11.79-.02-23.58-.02-35.37,0-2.55.02-5.1-.03-7.65-.11-5.23-.24-7.36-6.66-8.34-3.08-.47-4.52-3.47-3.63-6.58.47-1.63,1.58-2.78,3.24-3.17,1.23-.29,2.52-.42,3.78-.44,3.18-.06,6.37-.02,9.56-.02,0-.06,0-.13,0-.19Z"/><path d="m540.58,352.26c-7.23-.42-12.92-3.38-15.8-10.42-.93-2.27-1.51-4.76-1.8-7.21-.33-2.72-.47-5.42-1.44-8.04-.19-.5.26-1.54.74-1.93,4.15-3.32,10.19-3.05,13.48.87,4.14,4.94,8.78,9.52,12.05,15.16.75,1.29,1.54,2.57,2.14,3.92.92,2.08-.1,4.63-2.14,5.77-2.23,1.24-4.64,1.75-7.23,1.87Z"/></svg>